<svg xmlns="http://www.w3.org/2000/svg" xmlns:xlink="http://www.w3.org/1999/xlink" viewBox="0 0 118.97 35"><defs><style>.cls-1{fill:#0083b0;}.cls-2{fill:url(#Unbenannter_Verlauf_10);}.cls-3{fill:url(#Unbenannter_Verlauf_8);}.cls-4{fill:url(#Unbenannter_Verlauf_8-2);}.cls-5{fill:url(#Unbenannter_Verlauf_8-3);}</style><linearGradient id="Unbenannter_Verlauf_10" x1="15.78" y1="33.93" x2="15.78" y2="1.71" gradientUnits="userSpaceOnUse"><stop offset="0" stop-color="#ff416c"/><stop offset="1" stop-color="#ff4b2b"/></linearGradient><linearGradient id="Unbenannter_Verlauf_8" x1="0.25" y1="26.82" x2="29.53" y2="3.16" gradientUnits="userSpaceOnUse"><stop offset="0" stop-color="#00b4db"/><stop offset="1" stop-color="#0083b0"/></linearGradient><linearGradient id="Unbenannter_Verlauf_8-2" x1="0.4" y1="27.07" x2="29.59" y2="3.47" xlink:href="#Unbenannter_Verlauf_8"/><linearGradient id="Unbenannter_Verlauf_8-3" x1="9.36" y1="30.06" x2="20.32" y2="21.2" xlink:href="#Unbenannter_Verlauf_8"/></defs><title>mashwal-nav-logo_1</title><g id="Ebene_2" data-name="Ebene 2"><g id="Ebene_2-2" data-name="Ebene 2"><path class="cls-1" d="M71.58,19.3l-2.33-1.86a1.93,1.93,0,0,1-1-1.83c0-1.12.45-1.79,1.33-1.79s1.36.76,1.36,2v.89h2.51v-1c0-2.62-1.39-4.13-3.87-4.13s-3.8,1.51-3.8,4a4.36,4.36,0,0,0,2.09,3.84l2.33,1.86a2,2,0,0,1,1,1.89c0,1.21-.67,1.8-1.59,1.8S68,24.32,68,23V22.1H65.53v1a4.07,4.07,0,1,0,8.14.09A4.46,4.46,0,0,0,71.58,19.3Z"/><path class="cls-1" d="M60.13,11.57a3.76,3.76,0,0,0-4.07,4.13v7.41c0,2.65,1.12,4.13,3.51,4.13A2.36,2.36,0,0,0,61.78,26v1H64.2V15.7A3.76,3.76,0,0,0,60.13,11.57ZM61.7,23c0,1.36-.62,2-1.57,2s-1.56-.65-1.56-2V15.85c0-1.36.62-2,1.56-2s1.57.62,1.57,2Z"/><path class="cls-1" d="M96.89,22.92a1.55,1.55,0,0,1-3.1,0V7.5H91V22.92a1.59,1.59,0,0,1-1.55,1.55A1.52,1.52,0,0,1,88.36,24a1.48,1.48,0,0,1-.46-1.09V7.5H85.1V22.92a4.37,4.37,0,0,0,4.35,4.35,3.36,3.36,0,0,0,2.93-1.39,3.39,3.39,0,0,0,3,1.39,4.37,4.37,0,0,0,4.35-4.35V7.5h-2.8Z"/><path class="cls-1" d="M50.53,7.77a4.21,4.21,0,0,0-2.8.91,4.25,4.25,0,0,0-2.81-.91,3.75,3.75,0,0,0-4.07,4.13V27h2.53V12.05c0-1.36.59-2,1.54-2s1.53.62,1.53,2V27H49V12.05c0-1.36.59-2,1.53-2s1.54.62,1.54,2V27H54.6V11.9A3.75,3.75,0,0,0,50.53,7.77Z"/><path class="cls-1" d="M79.72,11.57a2.29,2.29,0,0,0-2,1.18v-5h-2.5V27h2.5V15.85c0-1.36.56-2,1.45-2s1.45.65,1.45,2V27h2.5V15.7C83.08,13.05,82.11,11.57,79.72,11.57Z"/><rect class="cls-1" x="111.09" y="7.5" width="2.8" height="19.58"/><path class="cls-1" d="M105.39,11.57a3.76,3.76,0,0,0-4.07,4.13v7.41c0,2.65,1.12,4.13,3.51,4.13A2.36,2.36,0,0,0,107,26v1h2.42V15.7A3.76,3.76,0,0,0,105.39,11.57ZM107,23c0,1.36-.62,2-1.57,2s-1.56-.65-1.56-2V15.85c0-1.36.62-2,1.56-2s1.57.62,1.57,2Z"/><rect class="cls-1" x="116.17" y="7.5" width="2.8" height="19.58"/><path class="cls-2" d="M30.2,7.53,27.94,3.2,25.49.94H5.94L2.5,3.66.92,9,2.05,21.67l7.69,9.8,7,2.38,10.15-6.79,3.73-9.64Z"/><path class="cls-3" d="M30,3.42l-.16-.56-.65-.07C27.93,2.65,26.71,1,26.39.47L26.11,0H5.46L5.19.47C4.86,1,3.66,2.65,2.41,2.79l-.66.07-.16.56c-7.45,25.2,13.7,31.45,13.92,31.51l.28.07.28-.07C16.29,34.87,37.38,28.42,30,3.42ZM15.79,33.19C13.24,32.33-2.78,25.94,3.33,4.35A6.66,6.66,0,0,0,6.62,1.71H25a6.7,6.7,0,0,0,3.29,2.64C34.36,25.94,18.33,32.33,15.79,33.19Z"/><path class="cls-4" d="M27,5.39c-1.73-.2-3-2.41-3-2.41H7.53s-1.27,2.21-3,2.41C1.38,16.24,4.44,22.88,8.16,26.78l0,0A9.16,9.16,0,0,1,7.51,24,6.71,6.71,0,0,1,9.14,19.9a4.45,4.45,0,0,0,1.13-2.6,2.08,2.08,0,0,0-1.95-2.11s.65-1.14,4.06-.82a11.16,11.16,0,0,1-.65-2.92c0-1.13,1-5.19,4.87-5.19A4.09,4.09,0,0,1,19,7.07s-2,.4-2,2.19,1.14,2.6,3.9,6,3.24,5.19,3.24,7.79a9.13,9.13,0,0,1-.84,3.83C27.08,23,30.23,16.34,27,5.39Z"/><path class="cls-5" d="M15.83,31.17A37.8,37.8,0,0,1,11.44,29c-.35-1.53-.65-4.4,1.5-5.74a5.57,5.57,0,0,0,2.45-5.86c5,4.07,1.14,7.65,1.14,7.65a2.74,2.74,0,0,0,3.41-1.62c1.55.63,1.12,3.64.73,5.37a36.46,36.46,0,0,1-4.75,2.42Z"/></g></g></svg>