<svg xmlns="http://www.w3.org/2000/svg" viewBox="0 0 279.06 309.53"><defs><style>.cls-1{fill:#fff;}</style></defs><title>mashwall-logo-white</title><g id="Ebene_2" data-name="Ebene 2"><g id="Ebene_2-2" data-name="Ebene 2"><path class="cls-1" d="M164.6,232.83s-5,14-21,10c0,0,24-22-7-47,0,0,6,21-15,36-13.19,8.2-11.38,25.8-9.26,35.23,15.68,8.88,27.25,12.35,27.28,12.36h0s12.67-3.81,29.44-13.61C171.47,255.21,174.12,236.7,164.6,232.83Z"/><path class="cls-1" d="M201.29,101.06c2.28,0,3.78-1.57,3.78-4.85V79c0-3.29-1.5-4.78-3.78-4.78S197.5,75.73,197.5,79V96.21C197.5,99.49,199,101.06,201.29,101.06Z"/><path class="cls-1" d="M91.86,101.06c2.28,0,3.78-1.57,3.78-4.85V79c0-3.29-1.5-4.78-3.78-4.78S88.08,75.73,88.08,79V96.21C88.08,99.49,89.58,101.06,91.86,101.06Z"/><path class="cls-1" d="M239.44,46c-15.39-1.78-26.55-21.31-26.55-21.31H66.34S55.15,44.27,39.81,46C6.19,161.64,52.17,223.47,92.25,253.85c-1.77-4.6-4.15-11.85-4.15-17.52,0-9,4-17,10-25s7-13,7-16-1-11-12-13c0,0,4-7,25-5,0,0-4-11-4-18s6-32,30-32a25.22,25.22,0,0,1,15,5s-12.5,2.5-12.5,13.5,7,16,24,37,20,32,20,48a56.29,56.29,0,0,1-5.67,24.56C225.47,225.59,273.64,163.64,239.44,46ZM128.23,59.47h6.07V71.53c.64-1.64,2.92-2.86,4.92-2.86,5.78,0,8.13,3.57,8.13,10V106h-6.06V79c0-3.29-1.29-4.85-3.5-4.85S134.3,75.73,134.3,79v27h-6.07Zm-83,10c0-6.35,3.71-10,9.85-10a10.1,10.1,0,0,1,6.78,2.21,10.15,10.15,0,0,1,6.79-2.21c6.14,0,9.85,3.64,9.85,10V106H72.36V69.81c0-3.28-1.42-4.77-3.71-4.77s-3.71,1.49-3.71,4.77V106H58.79V69.81c0-3.28-1.43-4.77-3.71-4.77s-3.71,1.49-3.71,4.77V106H45.23ZM82,96.56V78.66c0-6.35,3.71-10,9.84-10s9.84,3.64,9.84,10V106H95.85v-2.43c-.71,1.86-3.13,3-5.35,3C84.73,106.55,82,103,82,96.56Zm22.89,0V94.14H111v2.07c0,3.28,1.5,4.92,3.78,4.92s3.86-1.43,3.86-4.35c0-2-.43-3.07-2.36-4.57l-5.63-4.49c-3.21-2.57-5.07-4.71-5.07-9.27,0-6.14,3.21-9.78,9.2-9.78s9.35,3.64,9.35,10v2.5H118V79c0-3.07-1.07-4.93-3.29-4.93s-3.21,1.64-3.21,4.36c0,2,.43,2.92,2.36,4.42l5.63,4.49c3.21,2.57,5.07,4.85,5.07,9.42,0,6.13-3.85,9.77-9.85,9.77S104.91,102.91,104.91,96.56Zm72.07,10c-3.19,0-5.58-1.11-7.15-3.34a8.11,8.11,0,0,1-7.09,3.34,10.53,10.53,0,0,1-10.51-10.5V58.82H159V96.11a3.72,3.72,0,0,0,6.37,2.63,3.59,3.59,0,0,0,1.12-2.63V58.82h6.76V96.11a3.72,3.72,0,0,0,6.37,2.63,3.63,3.63,0,0,0,1.12-2.63V58.82h6.76V96.11A10.53,10.53,0,0,1,177,106.61Zm14.46-10V78.66c0-6.35,3.71-10,9.85-10s9.84,3.64,9.84,10V106h-5.85v-2.43c-.71,1.86-3.14,3-5.35,3C194.15,106.55,191.44,103,191.44,96.56Zm23.63,9.59V58.82h6.76v47.33Zm12.27,0V58.82h6.76v47.33Z"/><path class="cls-1" d="M265.16,30.28l-1.47-5-5.76-.66c-11-1.23-21.69-15.6-24.58-20.55L230.92,0H48.28l-2.4,4.13C43,9.07,32.35,23.43,21.3,24.67l-5.78.66-1.46,5C-51.85,253.07,135.25,308.39,137.17,308.89l2.49.64,2.5-.66C144.05,308.35,330.57,251.38,265.16,30.28ZM139.62,293.56C117.06,285.89-24.6,229.4,29.48,38.48c14.17-4.22,24.43-16.65,29.1-23.33H220.66c4.67,6.68,14.91,19.12,29.09,23.33C303.83,229.41,162.15,285.89,139.62,293.56Z"/></g></g></svg>